<svg width="1200" height="800" viewBox="0 0 1200 800" fill="none" xmlns="http://www.w3.org/2000/svg">
  <rect width="1200" height="800" rx="36" fill="#F7E9DB"/>
  <rect y="560" width="1200" height="240" fill="#9BAA86"/>
  <circle cx="252" cy="156" r="92" fill="#F9D874"/>
  <rect x="316" y="406" width="246" height="154" rx="28" fill="#FFF0E3" stroke="#2D384D" stroke-width="12"/>
  <path d="M562 458C607 458 643 494 643 539H562V458Z" fill="#FFF0E3" stroke="#2D384D" stroke-width="12"/>
  <rect x="366" y="350" width="146" height="74" rx="24" fill="#FBA07F"/>
  <path d="M401 333C401 305 423 283 451 283C479 283 501 305 501 333" stroke="#2D384D" stroke-width="14" stroke-linecap="round"/>
  <circle cx="782" cy="478" r="112" fill="#92B6CC"/>
  <circle cx="744" cy="458" r="18" fill="#2D384D"/>
  <circle cx="820" cy="458" r="18" fill="#2D384D"/>
  <path d="M733 519C770 548 809 548 846 519" stroke="#2D384D" stroke-width="14" stroke-linecap="round"/>
  <circle cx="904" cy="612" r="34" fill="#EA8685"/>
  <circle cx="996" cy="628" r="26" fill="#F9D874"/>
  <path d="M155 624C291 559 432 526 577 526C722 526 873 557 1032 620" stroke="#2D384D" stroke-width="18" stroke-linecap="round" stroke-opacity="0.18"/>
</svg>
