<svg width="1200" height="800" viewBox="0 0 1200 800" fill="none" xmlns="http://www.w3.org/2000/svg">
  <rect width="1200" height="800" rx="36" fill="#FFF0E3"/>
  <circle cx="288" cy="174" r="96" fill="#92B6CC" fill-opacity="0.6"/>
  <circle cx="928" cy="612" r="124" fill="#EA8685" fill-opacity="0.45"/>
  <rect x="238" y="120" width="528" height="560" rx="34" fill="#FFF0E3" stroke="#2D384D" stroke-width="12"/>
  <rect x="318" y="224" width="368" height="20" rx="10" fill="#2D384D" fill-opacity="0.18"/>
  <rect x="318" y="278" width="316" height="20" rx="10" fill="#2D384D" fill-opacity="0.18"/>
  <rect x="318" y="332" width="352" height="20" rx="10" fill="#2D384D" fill-opacity="0.18"/>
  <rect x="318" y="412" width="286" height="20" rx="10" fill="#2D384D" fill-opacity="0.18"/>
  <rect x="318" y="466" width="244" height="20" rx="10" fill="#2D384D" fill-opacity="0.18"/>
  <rect x="824" y="198" width="140" height="140" rx="28" fill="#FBA07F"/>
  <path d="M894 236V300" stroke="#FFF0E3" stroke-width="18" stroke-linecap="round"/>
  <path d="M862 268H926" stroke="#FFF0E3" stroke-width="18" stroke-linecap="round"/>
  <rect x="786" y="426" width="216" height="160" rx="30" fill="#9BAA86"/>
  <path d="M826 506L866 546L954 450" stroke="#FFF0E3" stroke-width="18" stroke-linecap="round" stroke-linejoin="round"/>
</svg>
