<svg width="1200" height="800" viewBox="0 0 1200 800" fill="none" xmlns="http://www.w3.org/2000/svg">
  <rect width="1200" height="800" rx="36" fill="#F7E9DB"/>
  <circle cx="954" cy="160" r="112" fill="#92B6CC" fill-opacity="0.65"/>
  <circle cx="238" cy="646" r="128" fill="#EA8685" fill-opacity="0.45"/>
  <rect x="248" y="158" width="464" height="332" rx="28" fill="#FFF0E3" stroke="#2D384D" stroke-width="12"/>
  <rect x="332" y="234" width="298" height="20" rx="10" fill="#2D384D" fill-opacity="0.2"/>
  <rect x="332" y="286" width="252" height="20" rx="10" fill="#2D384D" fill-opacity="0.2"/>
  <rect x="332" y="338" width="276" height="20" rx="10" fill="#2D384D" fill-opacity="0.2"/>
  <rect x="332" y="390" width="198" height="20" rx="10" fill="#2D384D" fill-opacity="0.2"/>
  <rect x="470" y="430" width="116" height="36" rx="18" fill="#FBA07F"/>
  <rect x="508" y="196" width="100" height="22" rx="11" fill="#9BAA86"/>
  <rect x="432" y="268" width="464" height="332" rx="28" fill="#FFF0E3" stroke="#2D384D" stroke-width="12"/>
  <rect x="516" y="344" width="298" height="20" rx="10" fill="#2D384D" fill-opacity="0.2"/>
  <rect x="516" y="396" width="252" height="20" rx="10" fill="#2D384D" fill-opacity="0.2"/>
  <rect x="516" y="448" width="276" height="20" rx="10" fill="#2D384D" fill-opacity="0.2"/>
  <rect x="516" y="500" width="198" height="20" rx="10" fill="#2D384D" fill-opacity="0.2"/>
  <path d="M884 628L942 686" stroke="#2D384D" stroke-width="20" stroke-linecap="round"/>
  <circle cx="814" cy="558" r="88" fill="#F9D874" stroke="#2D384D" stroke-width="20"/>
</svg>
